<svg width="64" height="64" viewBox="0 0 64 64" fill="none" xmlns="http://www.w3.org/2000/svg">
<rect width="64" height="64" rx="32" fill="white"/>
<path d="M38.8064 31.5104C39.0352 32.0371 39.169 32.6825 39.1978 33.4288C39.9677 33.6061 40.5456 34.295 40.5456 35.1187C40.5456 36.0745 39.767 36.8531 38.8109 36.8531C37.8547 36.8531 37.0765 36.0745 37.0765 35.1187C37.0765 34.3049 37.6403 33.6221 38.3978 33.4358C38.3645 32.6947 38.1878 31.5677 37.4621 31.0109C37.0925 30.9145 36.7114 30.8457 36.3206 30.8096C36.2922 32.1078 32.001 35.3117 32.001 35.3117C32.001 35.3117 27.7088 32.1081 27.6797 30.8099C27.2461 30.8496 26.8243 30.9293 26.4166 31.0429C25.8874 31.4627 25.6138 32.2429 25.5997 33.3773C25.7549 33.4665 25.8806 33.6067 25.9581 33.7757C26.528 34.0448 27.0317 34.6102 27.4173 35.4173C27.4819 35.5529 27.4906 35.7059 27.4429 35.8461C27.6742 36.4409 27.8061 37.0915 27.8061 37.6368C27.8061 38.4022 27.8061 39.1254 26.9722 39.311C26.8819 39.3862 26.769 39.4272 26.6502 39.4272H26.0931C25.8134 39.4272 25.5862 39.1997 25.5862 38.9203L25.5869 38.9001C25.5974 38.6313 25.823 38.4134 26.0931 38.4134H26.6502C26.7072 38.4134 26.7632 38.4227 26.817 38.4422C26.8506 38.4323 26.8611 38.4243 26.8611 38.4243C26.9232 38.3145 26.9232 37.8566 26.9232 37.6364C26.9232 37.1926 26.8122 36.6576 26.6176 36.16C26.5168 36.1021 26.4352 36.0157 26.3846 35.911C26.047 35.2035 25.5875 34.7465 25.2144 34.7465C24.8326 34.7465 24.3504 35.2406 24.0138 35.9753C23.959 36.0947 23.8627 36.1929 23.744 36.2502C23.568 36.7264 23.4717 37.2169 23.4717 37.6364C23.4717 37.8214 23.4717 38.3113 23.5421 38.4265C23.543 38.4265 23.5587 38.4358 23.6026 38.4467C23.6605 38.4252 23.7222 38.4134 23.7843 38.4134H24.3424C24.6026 38.4134 24.8198 38.6115 24.8461 38.8691L24.849 38.9005C24.849 39.2003 24.6218 39.4272 24.3424 39.4272H23.7843C23.6736 39.4272 23.5664 39.3904 23.4784 39.3235C23.1594 39.263 22.9347 39.1225 22.7923 38.8931C22.6202 38.6163 22.5885 38.2531 22.5885 37.6364C22.5885 37.0957 22.7133 36.4726 22.9402 35.8784C22.9066 35.7517 22.9181 35.6182 22.9734 35.4982C23.2099 34.9821 23.5104 34.5395 23.8419 34.2195C24.0246 34.0432 24.2208 33.9021 24.4259 33.799C24.5027 33.6188 24.6362 33.4717 24.7994 33.3785C24.808 32.6669 24.9174 32.0531 25.1194 31.5469C22.8038 32.7213 21.2173 35.1241 21.2173 37.8985C21.2173 41.4435 23.8077 41.6173 27.1984 41.6173C27.5686 41.6173 27.9475 41.6147 28.3347 41.6147H31.471C31.5552 41.5353 31.6445 41.4489 31.7408 41.3542C32.1731 40.9254 32.4362 40.6179 32.5962 40.4067C31.9648 39.6028 31.6406 38.5011 32.9386 36.8973C33.5456 36.1462 34.2336 35.7661 34.9818 35.7661C36.0074 35.7661 36.6848 36.4841 37.0957 36.9197C37.145 36.9731 37.1942 37.0243 37.2387 37.0704C38.1702 38.0086 38.0166 39.7523 37.0115 41.6163C40.2979 41.608 42.7814 41.3693 42.7814 37.8985C42.7824 35.0941 41.1619 32.671 38.8064 31.5104Z" fill="#064045"/>
<path d="M32.002 31.7409C35.2798 31.7409 37.9367 26.8119 37.9367 23.5342C37.9371 20.2571 35.2798 17.6001 32.002 17.6001C28.7246 17.6001 26.0676 20.2571 26.0676 23.5342C26.0676 26.8123 28.7246 31.7409 32.002 31.7409Z" fill="#064045"/>
<path d="M38.8103 35.919C39.2523 35.919 39.6106 35.5607 39.6106 35.1187C39.6106 34.6767 39.2523 34.3184 38.8103 34.3184C38.3683 34.3184 38.01 34.6767 38.01 35.1187C38.01 35.5607 38.3683 35.919 38.8103 35.919Z" fill="#064045"/>
<path d="M36.4823 37.8212C36.4276 37.7661 36.3719 37.7079 36.3152 37.6468C35.9738 37.2842 35.5485 36.833 34.9828 36.833C34.5658 36.833 34.1696 37.073 33.769 37.5674C32.7088 38.8772 33.0884 39.4349 33.7389 40.082L33.8378 40.1799C33.8941 40.2368 33.849 40.4586 33.6173 40.8116C33.3898 41.1591 33.0122 41.5962 32.4925 42.1114C31.2624 43.3322 30.777 43.4647 30.6253 43.4647C30.5748 43.4647 30.5613 43.4503 30.5527 43.442L30.4551 43.3434C30.146 43.0266 29.826 42.6996 29.3312 42.6996C28.9424 42.6996 28.4989 42.9076 27.9402 43.3533C27.4596 43.7376 27.2173 44.1197 27.1991 44.522C27.1728 45.1063 27.633 45.5463 28.0007 45.9008C28.0621 45.9588 28.1204 46.0141 28.1754 46.0701C28.3888 46.2852 28.7284 46.4 29.1572 46.4C30.1831 46.4 32.09 45.697 34.0868 43.7156C36.5335 41.2858 37.3133 38.6596 36.4823 37.8212Z" fill="#064045"/>
</svg>
