<svg width="20" height="20" viewBox="0 0 20 20" fill="none" xmlns="http://www.w3.org/2000/svg">
<path d="M5.83333 15C5.58333 15 5.41667 14.9167 5.25 14.75C4.91667 14.4167 4.91667 13.9167 5.25 13.5833L13.5833 5.25C13.9167 4.91667 14.4167 4.91667 14.75 5.25C15.0833 5.58333 15.0833 6.08333 14.75 6.41667L6.41667 14.75C6.25 14.9167 6.08333 15 5.83333 15Z" fill="white"/>
<path d="M14.1673 14.1667C13.6673 14.1667 13.334 13.8333 13.334 13.3333V6.66667H6.66732C6.16732 6.66667 5.83398 6.33333 5.83398 5.83333C5.83398 5.33333 6.16732 5 6.66732 5H14.1673C14.6673 5 15.0007 5.33333 15.0007 5.83333V13.3333C15.0007 13.8333 14.6673 14.1667 14.1673 14.1667Z" fill="white"/>
</svg>
