<svg width="28" height="28" viewBox="0 0 28 28" fill="none" xmlns="http://www.w3.org/2000/svg">
<path d="M14 7C15.4497 7 16.625 5.82475 16.625 4.375C16.625 2.92525 15.4497 1.75 14 1.75C12.5503 1.75 11.375 2.92525 11.375 4.375C11.375 5.82475 12.5503 7 14 7Z" fill="white"/>
<path d="M4.375 16.625C5.82475 16.625 7 15.4497 7 14C7 12.5503 5.82475 11.375 4.375 11.375C2.92525 11.375 1.75 12.5503 1.75 14C1.75 15.4497 2.92525 16.625 4.375 16.625Z" fill="white"/>
<path d="M14 26.25C15.4497 26.25 16.625 25.0747 16.625 23.625C16.625 22.1753 15.4497 21 14 21C12.5503 21 11.375 22.1753 11.375 23.625C11.375 25.0747 12.5503 26.25 14 26.25Z" fill="white"/>
<path d="M23.625 16.625C25.0747 16.625 26.25 15.4497 26.25 14C26.25 12.5503 25.0747 11.375 23.625 11.375C22.1753 11.375 21 12.5503 21 14C21 15.4497 22.1753 16.625 23.625 16.625Z" fill="white"/>
<path d="M9.625 22.75C7.21277 22.75 5.25 20.7872 5.25 18.375C5.25 17.8918 4.85822 17.5 4.375 17.5C3.89178 17.5 3.5 17.8918 3.5 18.375C3.5 21.7524 6.24762 24.5 9.625 24.5C10.1082 24.5 10.5 24.1082 10.5 23.625C10.5 23.1418 10.1082 22.75 9.625 22.75Z" fill="white"/>
<path d="M4.375 10.5C4.85822 10.5 5.25 10.1082 5.25 9.625C5.25 7.21277 7.21277 5.25 9.625 5.25C10.1082 5.25 10.5 4.85822 10.5 4.375C10.5 3.89178 10.1082 3.5 9.625 3.5C6.24762 3.5 3.5 6.24762 3.5 9.625C3.5 10.1082 3.89178 10.5 4.375 10.5Z" fill="white"/>
<path d="M23.625 17.5C23.1418 17.5 22.75 17.8918 22.75 18.375C22.75 20.7872 20.7872 22.75 18.375 22.75C17.8918 22.75 17.5 23.1418 17.5 23.625C17.5 24.1082 17.8918 24.5 18.375 24.5C21.7524 24.5 24.5 21.7524 24.5 18.375C24.5 17.8918 24.1082 17.5 23.625 17.5Z" fill="white"/>
<path d="M18.375 5.25C20.7872 5.25 22.75 7.21277 22.75 9.625C22.75 10.1082 23.1418 10.5 23.625 10.5C24.1082 10.5 24.5 10.1082 24.5 9.625C24.5 6.24762 21.7524 3.5 18.375 3.5C17.8918 3.5 17.5 3.89178 17.5 4.375C17.5 4.85822 17.8918 5.25 18.375 5.25Z" fill="white"/>
<path d="M10.5 10.5H8.75C8.26678 10.5 7.875 10.8918 7.875 11.375V18.375C7.875 18.8582 8.26678 19.25 8.75 19.25H19.25C19.7332 19.25 20.125 18.8582 20.125 18.375V11.375C20.125 10.8918 19.7332 10.5 19.25 10.5H17.5V8.75C17.5 8.26678 17.1082 7.875 16.625 7.875H11.375C10.8918 7.875 10.5 8.26678 10.5 8.75V10.5ZM12.25 9.625H15.75V10.5H12.25V9.625ZM11.8125 14.4375H13.5625V12.6875C13.5625 12.4457 13.7582 12.25 14 12.25C14.2418 12.25 14.4375 12.4457 14.4375 12.6875V14.4375H16.1875C16.4293 14.4375 16.625 14.6332 16.625 14.875C16.625 15.1168 16.4293 15.3125 16.1875 15.3125H14.4375V17.0625C14.4375 17.3043 14.2418 17.5 14 17.5C13.7582 17.5 13.5625 17.3043 13.5625 17.0625V15.3125H11.8125C11.5707 15.3125 11.375 15.1168 11.375 14.875C11.375 14.6332 11.5707 14.4375 11.8125 14.4375Z" fill="white"/>
</svg>
