<svg width="28" height="28" viewBox="0 0 28 28" fill="none" xmlns="http://www.w3.org/2000/svg">
<path d="M4.98159 4.45683C5.08659 2.7885 6.47492 1.4585 8.16659 1.4585H22.1666C23.9399 1.4585 25.3749 2.8935 25.3749 4.66683V8.8085C24.4416 8.22516 23.3449 7.87516 22.1666 7.87516H17.7333L16.5199 6.06683C15.8199 5.00516 14.6416 4.37516 13.3699 4.37516H5.83325C5.54159 4.37516 5.26159 4.42183 4.98159 4.45683ZM26.5416 14.0002V22.1668C26.5416 24.5818 24.5816 26.5418 22.1666 26.5418H5.83325C3.41825 26.5418 1.45825 24.5818 1.45825 22.1668V10.5002C1.45825 8.08516 3.41825 6.12516 5.83325 6.12516H13.3699C14.0583 6.12516 14.6883 6.4635 15.0733 7.03516L16.7183 9.49683C16.7766 9.5785 16.8583 9.62516 16.9633 9.62516H22.1666C24.5816 9.62516 26.5416 11.5852 26.5416 14.0002ZM18.3749 17.5002C18.3749 17.0218 17.9783 16.6252 17.4999 16.6252H14.8749V14.0002C14.8749 13.5218 14.4783 13.1252 13.9999 13.1252C13.5216 13.1252 13.1249 13.5218 13.1249 14.0002V16.6252H10.4999C10.0216 16.6252 9.62492 17.0218 9.62492 17.5002C9.62492 17.9785 10.0216 18.3752 10.4999 18.3752H13.1249V21.0002C13.1249 21.4785 13.5216 21.8752 13.9999 21.8752C14.4783 21.8752 14.8749 21.4785 14.8749 21.0002V18.3752H17.4999C17.9783 18.3752 18.3749 17.9785 18.3749 17.5002Z" fill="#064045"/>
</svg>
