<svg width="20" height="20" viewBox="0 0 20 20" fill="none" xmlns="http://www.w3.org/2000/svg">
<rect width="20" height="20" rx="10" fill="#064045"/>
<path fill-rule="evenodd" clip-rule="evenodd" d="M14.3066 6.82481C14.3565 6.86847 14.3972 6.9216 14.4263 6.98112C14.4555 7.04064 14.4725 7.10537 14.4764 7.17152C14.4803 7.23768 14.471 7.30396 14.4491 7.3665C14.4272 7.42904 14.393 7.48659 14.3486 7.53581L9.09164 13.3703C9.04705 13.4197 8.99304 13.4597 8.93278 13.488C8.87253 13.5163 8.80723 13.5322 8.74073 13.5349C8.67423 13.5376 8.60786 13.527 8.54551 13.5037C8.48316 13.4804 8.42609 13.4449 8.37764 13.3993L5.33564 10.5358C5.24438 10.4487 5.18912 10.3305 5.18079 10.2046C5.17246 10.0787 5.21165 9.95422 5.29064 9.85581C5.33327 9.80246 5.3863 9.75834 5.44651 9.72611C5.50671 9.69388 5.57284 9.67422 5.64088 9.66833C5.70891 9.66244 5.77744 9.67043 5.84229 9.69183C5.90714 9.71323 5.96697 9.74759 6.01814 9.79281L8.37814 11.9158C8.47668 12.0045 8.6064 12.0504 8.7388 12.0435C8.87119 12.0366 8.99541 11.9773 9.08414 11.8788L13.6056 6.86531C13.6937 6.76773 13.8165 6.70872 13.9477 6.70105C14.0789 6.69338 14.2078 6.73766 14.3066 6.82431V6.82481Z" fill="white"/>
</svg>
