<svg width="32" height="32" viewBox="0 0 32 32" fill="none" xmlns="http://www.w3.org/2000/svg">
<path d="M11.6666 5.33317V1.6665H20.3333V5.33317C20.3333 5.51984 20.1866 5.6665 19.9999 5.6665H11.9999C11.8133 5.6665 11.6666 5.51984 11.6666 5.33317ZM27.6666 6.6665V25.3332C27.6666 28.0932 25.4266 30.3332 22.6666 30.3332H9.33325C6.57325 30.3332 4.33325 28.0932 4.33325 25.3332V6.6665C4.33325 3.9065 6.57325 1.6665 9.33325 1.6665H9.66659V5.33317C9.66659 6.61317 10.7199 7.6665 11.9999 7.6665H19.9999C21.2799 7.6665 22.3333 6.61317 22.3333 5.33317V1.6665H22.6666C25.4266 1.6665 27.6666 3.9065 27.6666 6.6665ZM22.3333 18.6665C22.3333 18.1198 21.8799 17.6665 21.3333 17.6665H19.4533L18.6933 14.6265C18.5333 13.9865 17.9866 13.5598 17.3333 13.5465C16.6533 13.5198 16.1199 13.9465 15.9466 14.5865L14.4133 19.9598L13.7066 18.5732C13.4133 18.0132 12.8533 17.6665 12.2266 17.6665H10.6799C10.1333 17.6665 9.67992 18.1198 9.67992 18.6665C9.67992 19.2132 10.1333 19.6665 10.6799 19.6665H12.0266L13.3066 22.1598C13.5466 22.6398 14.0399 22.9332 14.5733 22.9332H14.7199C15.3066 22.8798 15.7866 22.4665 15.9466 21.9065L17.2933 17.1998L17.5999 18.3998C17.7866 19.1465 18.4533 19.6665 19.2133 19.6665H21.3599C21.9066 19.6665 22.3599 19.2132 22.3599 18.6665H22.3333Z" fill="#064045"/>
</svg>
