<svg width="28" height="28" viewBox="0 0 28 28" fill="none" xmlns="http://www.w3.org/2000/svg">
<g clip-path="url(#clip0_4978_350)">
<path d="M13.945 4.57506H14.2867C15.6543 4.57506 16.7671 5.68777 16.7671 7.05543C16.7671 8.42315 15.6544 9.53586 14.2867 9.53586H13.945V12.0464H17.0375C17.4901 12.0464 17.8571 12.4133 17.8571 12.866V14.0073C17.8571 14.4711 18.2345 14.8485 18.6983 14.8485C19.1622 14.8485 19.5396 14.4711 19.5396 14.0073V12.866C19.5396 12.4133 19.9066 12.0464 20.3592 12.0464H23.8307C24.0434 9.92467 23.6363 7.73727 22.6346 5.66346C21.6754 3.67751 20.0348 2.07064 18.0152 1.13889C16.6779 0.522017 15.3055 0.154354 13.945 0.0306523V4.57506Z" fill="white"/>
<path d="M4.58057 12.0465V11.6864C4.58057 10.3187 5.69328 9.20601 7.061 9.20601C8.42871 9.20601 9.54137 10.3187 9.54137 11.6864V12.0465H12.3058V8.71639C12.3058 8.26376 12.6728 7.89681 13.1254 7.89681H14.2867C14.7505 7.89681 15.128 7.51942 15.128 7.05554C15.128 6.59171 14.7506 6.21432 14.2867 6.21432H13.1254C12.6728 6.21432 12.3058 5.84737 12.3058 5.39474V0C10.4475 0.102557 8.64896 0.672601 7.03603 1.70478C3.8695 3.73111 1.979 7.18258 1.979 10.9374C1.979 11.3103 1.99791 11.6802 2.03452 12.0465H4.58057Z" fill="white"/>
<path d="M12.3058 20.4636H11.9842C10.6164 20.4636 9.50367 19.3509 9.50367 17.9832C9.50367 16.6156 10.6164 15.5028 11.9842 15.5028H12.3058V13.6856H8.72179C8.26917 13.6856 7.90221 13.3187 7.90221 12.866V11.6863C7.90221 11.2225 7.52482 10.8451 7.061 10.8451C6.59711 10.8451 6.21973 11.2225 6.21973 11.6863V12.866C6.21973 13.3187 5.85277 13.6856 5.40015 13.6856H2.32683C2.47862 14.272 2.67914 14.8465 2.9295 15.406C3.48894 16.6562 4.26579 17.7748 5.24131 18.7358V24.9926C5.24131 25.3861 5.52095 25.7241 5.90752 25.7977L12.3058 27.0165V20.4636Z" fill="white"/>
<path d="M24.2868 13.6857H21.1788V14.0074C21.1788 15.3751 20.0661 16.4878 18.6984 16.4878C17.3307 16.4878 16.2179 15.3751 16.2179 14.0074V13.6857H13.945V16.3224C13.945 16.775 13.578 17.142 13.1254 17.142H11.9842C11.5203 17.142 11.1428 17.5194 11.1428 17.9833C11.1428 18.4471 11.5202 18.8245 11.9842 18.8245H13.1254C13.578 18.8245 13.945 19.1915 13.945 19.6441V27.3289L17.3806 27.9833C17.8668 28.0891 18.3664 27.677 18.3536 27.1782V25.1265H20.7381C21.8561 25.1265 22.8024 24.3263 22.9883 23.224L23.6505 19.2972H24.0044C24.728 19.2972 25.3778 18.9242 25.7428 18.2994C26.1078 17.6746 26.1135 16.9254 25.7581 16.295L24.2868 13.6857Z" fill="white"/>
</g>
<defs>
<clipPath id="clip0_4978_350">
<rect width="28" height="28" fill="white"/>
</clipPath>
</defs>
</svg>
