<svg width="28" height="28" viewBox="0 0 28 28" fill="none" xmlns="http://www.w3.org/2000/svg">
<path d="M17.7734 6.28906C17.7734 6.43984 17.8961 6.5625 18.0469 6.5625H24.2984C24.1484 6.28545 23.9553 6.03099 23.7233 5.81153L18.4502 0.822828C18.2456 0.629234 18.0176 0.467742 17.7734 0.340266V6.28906Z" fill="white"/>
<path d="M18.0469 8.20312C16.9915 8.20312 16.1328 7.34448 16.1328 6.28906V0H6.34375C4.68524 0 3.33594 1.3493 3.33594 3.00781V24.9922C3.33594 26.6507 4.68524 28 6.34375 28H21.6562C23.3148 28 24.6641 26.6507 24.6641 24.9922V8.20312H18.0469ZM12.3594 5.74219C12.8124 5.74219 13.1797 6.10947 13.1797 6.5625C13.1797 7.01553 12.8124 7.38281 12.3594 7.38281H10.7188V9.02344C10.7188 9.47647 10.3515 9.84375 9.89844 9.84375C9.44541 9.84375 9.07812 9.47647 9.07812 9.02344V7.38281H7.4375C6.98447 7.38281 6.61719 7.01553 6.61719 6.5625C6.61719 6.10947 6.98447 5.74219 7.4375 5.74219H9.07812V4.10156C9.07812 3.64853 9.44541 3.28125 9.89844 3.28125C10.3515 3.28125 10.7188 3.64853 10.7188 4.10156V5.74219H12.3594ZM7.82031 18.5938C7.36728 18.5938 7 18.2265 7 17.7734C7 17.3204 7.36728 16.9531 7.82031 16.9531H19.8516C20.3046 16.9531 20.6719 17.3204 20.6719 17.7734C20.6719 18.2265 20.3046 18.5938 19.8516 18.5938H7.82031ZM12.6175 22.1484C12.6175 22.6015 12.2502 22.9688 11.7972 22.9688H7.82031C7.36728 22.9688 7 22.6015 7 22.1484C7 21.6954 7.36728 21.3281 7.82031 21.3281H11.7972C12.2502 21.3281 12.6175 21.6954 12.6175 22.1484ZM19.8516 12.5781C20.3046 12.5781 20.6719 12.9454 20.6719 13.3984C20.6719 13.8515 20.3046 14.2188 19.8516 14.2188H7.82031C7.36728 14.2188 7 13.8515 7 13.3984C7 12.9454 7.36728 12.5781 7.82031 12.5781H19.8516Z" fill="white"/>
</svg>
