<svg width="32" height="32" viewBox="0 0 32 32" fill="none" xmlns="http://www.w3.org/2000/svg">
<path d="M27.3658 2.69988C26.835 2.168 26.1291 1.875 25.3781 1.875H24.1316V3.125C24.1316 4.5035 23.0113 5.625 21.6343 5.625H10.3968C9.01981 5.625 7.89956 4.5035 7.89956 3.125V1.875H6.64888C5.1015 1.875 3.84125 3.13525 3.8395 4.68437L3.8125 29.1844C3.81163 29.9362 4.1035 30.6432 4.63419 31.1751C5.165 31.7071 5.87088 32 6.62188 32H25.3511C26.8984 32 28.1588 30.7397 28.1604 29.1906L28.1875 4.69063C28.1884 3.93881 27.8965 3.23181 27.3658 2.69988ZM16.3184 11.25H22.9717C23.4889 11.25 23.9081 11.6697 23.9081 12.1875C23.9081 12.7053 23.4889 13.125 22.9717 13.125H16.3184C15.8012 13.125 15.3819 12.7053 15.3819 12.1875C15.3819 11.6697 15.8012 11.25 16.3184 11.25ZM16.3184 17.5H22.9717C23.4889 17.5 23.9081 17.9197 23.9081 18.4375C23.9081 18.9553 23.4889 19.375 22.9717 19.375H16.3184C15.8012 19.375 15.3819 18.9553 15.3819 18.4375C15.3819 17.9197 15.8012 17.5 16.3184 17.5ZM16.3184 23.75H22.9984C23.5156 23.75 23.9349 24.1697 23.9349 24.6875C23.9349 25.2053 23.5156 25.625 22.9984 25.625H16.3184C15.8012 25.625 15.3819 25.2053 15.3819 24.6875C15.3819 24.1697 15.8012 23.75 16.3184 23.75ZM8.33944 11.287C8.70519 10.9209 9.29806 10.9209 9.66381 11.287L10.173 11.7968L12.3326 9.63481C12.6984 9.26875 13.2913 9.26862 13.6569 9.63481C14.0226 10.0009 14.0226 10.5945 13.6569 10.9606L10.8351 13.7855C10.6595 13.9613 10.4213 14.0601 10.1729 14.0601C9.92456 14.0601 9.68638 13.9614 9.51075 13.7855L8.33938 12.6128C7.97369 12.2467 7.97369 11.6531 8.33944 11.287ZM8.33944 18.0143C8.70519 17.6482 9.29806 17.6482 9.66381 18.0143L10.173 18.5241L12.3326 16.3621C12.6983 15.996 13.2913 15.996 13.6569 16.3621C14.0226 16.7281 14.0226 17.3218 13.6569 17.6879L10.8351 20.5128C10.6596 20.6886 10.4213 20.7874 10.1729 20.7874C9.92456 20.7874 9.68638 20.6887 9.51075 20.5128L8.33938 19.3401C7.97369 18.974 7.97369 18.3804 8.33944 18.0143ZM8.33944 24.2643C8.70519 23.8982 9.29806 23.8982 9.66381 24.2643L10.173 24.7741L12.3326 22.6121C12.6983 22.246 13.2913 22.246 13.6569 22.6121C14.0226 22.9781 14.0226 23.5718 13.6569 23.9379L10.8351 26.7628C10.6596 26.9386 10.4213 27.0374 10.1729 27.0374C9.92456 27.0374 9.68638 26.9387 9.51075 26.7628L8.33938 25.5901C7.97369 25.224 7.97369 24.6304 8.33944 24.2643Z" fill="#064045"/>
<path d="M9.77344 3.125C9.77344 3.47019 10.0529 3.75 10.3978 3.75H21.6353C21.9801 3.75 22.2596 3.47019 22.2596 3.125V0.625C22.2596 0.279813 21.9801 0 21.6353 0H10.3978C10.0529 0 9.77344 0.279813 9.77344 0.625V3.125Z" fill="#064045"/>
</svg>
