<svg width="28" height="28" viewBox="0 0 28 28" fill="none" xmlns="http://www.w3.org/2000/svg">
<rect width="28" height="28" rx="14" fill="white" fill-opacity="0.1"/>
<path d="M10.2842 21.3456C10.1543 21.2482 9.99178 21.1507 9.86179 21.0857C9.89429 20.8257 9.86179 20.5332 9.7968 20.2408C9.66682 19.7533 9.40685 19.2984 9.04939 18.8759C8.72442 19.1359 8.56194 19.5908 8.62693 20.0783C8.39946 19.8508 8.17198 19.6233 7.97701 19.3959C8.10699 19.1684 8.17198 18.8759 8.17198 18.5835C8.20448 18.096 8.10699 17.6086 7.87952 17.1211C7.45707 17.2836 7.19709 17.7061 7.1321 18.1935C6.96962 17.9335 6.83963 17.6411 6.70965 17.3811C6.90463 17.1861 7.06711 16.9261 7.1646 16.6337C7.32708 16.1787 7.35958 15.6913 7.26209 15.1713C6.80714 15.2363 6.41718 15.5613 6.2222 16.0487C6.12471 15.7238 6.05972 15.4313 6.02723 15.1063C6.2872 14.9764 6.51467 14.7489 6.67715 14.4889C6.93712 14.099 7.1321 13.6115 7.1646 13.0916C6.67715 13.0266 6.18971 13.2866 5.89724 13.7415C5.89724 13.4165 5.92974 13.0591 5.96223 12.7341C6.2547 12.6691 6.54717 12.5066 6.80714 12.3117C7.1646 12.0192 7.45706 11.5967 7.65204 11.1093C7.19709 10.9143 6.64466 11.0443 6.2222 11.4343C6.31969 11.1093 6.41718 10.7518 6.54717 10.4269C6.87213 10.4594 7.19709 10.3619 7.48956 10.2319C7.91201 10.0369 8.30197 9.71195 8.62693 9.25701C8.23698 8.93204 7.65204 8.93204 7.1321 9.22451C7.32708 8.89955 7.52206 8.60708 7.74953 8.31461C8.042 8.4446 8.39946 8.4446 8.75692 8.3796C9.24436 8.28212 9.73181 8.08714 10.1868 7.72968C9.89429 7.30722 9.30936 7.14474 8.69193 7.30722C9.14687 6.88477 9.63432 6.49482 10.2193 6.16985C10.3817 6.07236 10.4467 5.87739 10.3492 5.7149C10.2518 5.55242 10.0243 5.48743 9.86179 5.58492C9.24436 5.94238 8.69193 6.36483 8.20448 6.81978C8.46445 6.16985 8.49695 5.58492 8.20448 5.12997C7.61955 5.51993 7.19709 6.16985 7.09961 6.72229C7.00212 7.14474 7.06711 7.5022 7.26209 7.79467C7.00212 8.11963 6.77464 8.47709 6.57966 8.80206C6.64466 8.11963 6.48217 7.5347 6.09222 7.20974C5.63727 7.82717 5.44229 8.54209 5.50728 9.09452C5.53978 9.51698 5.70226 9.84194 5.96223 10.0694C5.79975 10.4594 5.66977 10.8168 5.57228 11.2068C5.44229 10.5569 5.14982 10.0369 4.66238 9.80944C4.40241 10.5244 4.40241 11.2393 4.59739 11.7592C4.75987 12.1492 4.98734 12.4092 5.31231 12.5716C5.24731 12.9616 5.24731 13.3515 5.24731 13.7415C4.95485 13.1566 4.53239 12.7666 4.01245 12.7016C3.94746 13.449 4.14244 14.1315 4.4674 14.5864C4.69488 14.9114 5.01984 15.1063 5.3448 15.1713C5.3773 15.5613 5.47479 15.9188 5.53978 16.2762C5.11733 15.8213 4.62988 15.5613 4.10994 15.6263C4.23993 16.3737 4.59739 16.9911 5.05234 17.3161C5.3448 17.5761 5.70226 17.6736 5.99473 17.6411C6.12472 17.966 6.2872 18.3235 6.44968 18.616C5.89724 18.3885 5.3773 18.2585 4.92235 18.4535C5.24731 19.1359 5.76726 19.6558 6.2872 19.8833C6.64466 20.0458 6.96962 20.0458 7.26209 19.9808C7.48956 20.2733 7.71704 20.5332 7.97701 20.7932C7.42457 20.6632 6.93712 20.6957 6.57966 20.9882C7.09961 21.5731 7.78203 21.9306 8.36696 22.0281C8.72442 22.0931 9.04939 22.0281 9.30936 21.8981C9.43934 21.9956 9.60182 22.0931 9.73181 22.1905C9.99178 22.353 10.3167 22.2555 10.4467 21.9956C10.5767 21.7681 10.5117 21.4756 10.2842 21.3456ZM23.2178 16.2762C23.3153 15.9188 23.3803 15.5288 23.4128 15.1713C23.7377 15.1063 24.0302 14.9114 24.2902 14.5864C24.6151 14.1315 24.8101 13.449 24.7451 12.7016C24.2252 12.7666 23.8027 13.1891 23.5103 13.7415C23.5103 13.3515 23.4778 12.9616 23.4453 12.5716C23.7377 12.4416 23.9977 12.1492 24.1602 11.7592C24.3552 11.2393 24.3877 10.5244 24.0952 9.80944C23.6077 10.0369 23.3153 10.5569 23.1853 11.2068C23.0878 10.8168 22.9578 10.4269 22.7953 10.0694C23.0553 9.84194 23.2178 9.51698 23.2503 9.09452C23.3153 8.54209 23.1203 7.82717 22.6654 7.20974C22.2429 7.5347 22.1129 8.15213 22.1779 8.80206C21.9179 8.4446 21.6905 8.11963 21.4305 7.79467C21.6255 7.5347 21.6905 7.14474 21.593 6.72229C21.4955 6.16985 21.073 5.51993 20.4231 4.99998C20.1306 5.42244 20.1631 6.03987 20.4231 6.68979C19.9357 6.23485 19.3832 5.81239 18.7658 5.45493C18.6033 5.35744 18.3758 5.42244 18.2783 5.58492C18.1809 5.7474 18.2459 5.94238 18.4083 6.03987C18.9608 6.36483 19.4807 6.75479 19.9357 7.17724C19.3182 7.01476 18.7333 7.17724 18.4408 7.59969C18.8958 7.95715 19.3832 8.15213 19.8707 8.24962C20.2281 8.31461 20.5856 8.31461 20.8781 8.18463C21.1055 8.47709 21.333 8.80206 21.4955 9.09452C20.9755 8.80206 20.3906 8.80206 20.0007 9.12702C20.3256 9.54947 20.7156 9.90693 21.138 10.1019C21.463 10.2644 21.788 10.3294 22.0804 10.2969C22.2104 10.6219 22.3079 10.9468 22.4054 11.3043C21.9829 10.9143 21.4305 10.7843 20.9755 10.9793C21.1705 11.4668 21.463 11.8892 21.8204 12.1817C22.0804 12.4092 22.3729 12.5391 22.6654 12.6041C22.6978 12.9291 22.7303 13.2866 22.7303 13.6115C22.4379 13.1566 21.9504 12.8966 21.463 12.9616C21.528 13.4815 21.6905 13.969 21.9504 14.3589C22.1129 14.6189 22.3404 14.8464 22.6004 14.9764C22.5354 15.3013 22.4704 15.5938 22.4054 15.9188C22.2104 15.4313 21.8529 15.0739 21.3655 15.0414C21.268 15.5613 21.333 16.0812 21.463 16.5037C21.5605 16.7962 21.6905 17.0561 21.9179 17.2511C21.788 17.5436 21.658 17.8035 21.4955 18.0635C21.4305 17.5761 21.1705 17.1536 20.7481 16.9911C20.5206 17.4786 20.4231 17.966 20.4556 18.4535C20.4556 18.7459 20.5206 19.0384 20.6506 19.2659C20.4556 19.4934 20.2281 19.7208 20.0007 19.9483C20.0656 19.4609 19.9357 19.0059 19.5782 18.7459C19.2207 19.1684 18.9608 19.6233 18.8308 20.1108C18.7658 20.4033 18.7333 20.6957 18.7658 20.9557C18.6358 21.0532 18.5058 21.1507 18.3433 21.2157C18.1159 21.3456 18.0509 21.6381 18.1484 21.8656C18.2783 22.1256 18.6033 22.223 18.8633 22.0606C19.0258 21.9631 19.1557 21.8656 19.2857 21.7681C19.5457 21.8981 19.8707 21.9631 20.2281 21.8981C20.8131 21.8006 21.4955 21.4431 22.0154 20.8582C21.658 20.5657 21.1705 20.5332 20.6181 20.6632C20.8781 20.4032 21.1055 20.1433 21.333 19.8508C21.6255 19.9158 21.9504 19.8833 22.3079 19.7533C22.8278 19.5258 23.3478 19.0384 23.6727 18.3235C23.2178 18.1285 22.6978 18.2585 22.2104 18.551C22.3729 18.226 22.5354 17.901 22.6654 17.5761C22.9903 17.5761 23.3153 17.4786 23.6077 17.2511C24.0302 16.8936 24.4202 16.3087 24.5501 15.5613C24.1277 15.5613 23.6402 15.8538 23.2178 16.2762Z" fill="#D9D9D9"/>
<path d="M18.3435 19.2655L17.6611 15.3335L20.5208 12.5388C20.6183 12.4413 20.6508 12.3113 20.6183 12.2138C20.5858 12.0838 20.4883 12.0188 20.3583 11.9863L16.3938 11.4014L14.6389 7.82681C14.574 7.72933 14.4765 7.63184 14.3465 7.63184C14.2165 7.63184 14.119 7.69683 14.054 7.82681L12.2992 11.4014L8.33466 11.9863C8.20467 12.0188 8.10718 12.0838 8.07469 12.2138C8.04219 12.3438 8.07469 12.4738 8.17218 12.5388L11.0319 15.3335L10.3494 19.2655C10.3169 19.3955 10.3819 19.5255 10.4794 19.5905C10.5769 19.6555 10.7069 19.688 10.8369 19.623L14.3465 17.7382L17.8886 19.5905C17.9211 19.623 17.9861 19.623 18.0511 19.623C18.1161 19.623 18.181 19.5905 18.246 19.558C18.311 19.493 18.376 19.3955 18.3435 19.2655Z" fill="#FFD319"/>
</svg>
