<svg width="14" height="14" viewBox="0 0 14 14" fill="none" xmlns="http://www.w3.org/2000/svg">
<path d="M10.8099 6.53176L5.50758 1.19171C5.38495 1.0681 5.22124 1 5.04668 1C4.87212 1 4.70841 1.0681 4.58577 1.19171L4.19529 1.58487C3.9412 1.84107 3.9412 2.25745 4.19529 2.51326L8.64781 6.99751L4.19035 11.4867C4.06771 11.6104 4 11.7751 4 11.9508C4 12.1267 4.06771 12.2915 4.19035 12.4152L4.58083 12.8083C4.70356 12.9319 4.86718 13 5.04174 13C5.2163 13 5.38001 12.9319 5.50264 12.8083L10.8099 7.46336C10.9329 7.33936 11.0004 7.1738 11 6.99781C11.0004 6.82112 10.9329 6.65566 10.8099 6.53176Z" fill="white"/>
</svg>
