<svg width="28" height="28" viewBox="0 0 28 28" fill="none" xmlns="http://www.w3.org/2000/svg">
<path d="M21.875 8.75H11.375C10.9109 8.75 10.4658 8.93438 10.1376 9.26256C9.80938 9.59075 9.625 10.0359 9.625 10.5V17.5C9.625 17.9641 9.80938 18.4092 10.1376 18.7374C10.4658 19.0656 10.9109 19.25 11.375 19.25H12.25V21C12.2509 21.1727 12.3028 21.3414 12.3994 21.4846C12.4959 21.6279 12.6327 21.7394 12.7925 21.805C12.8963 21.854 13.0102 21.878 13.125 21.875C13.2402 21.8757 13.3543 21.8536 13.4609 21.8101C13.5675 21.7665 13.6645 21.7023 13.7463 21.6213L16.1087 19.25H21.875C22.3391 19.25 22.7842 19.0656 23.1124 18.7374C23.4406 18.4092 23.625 17.9641 23.625 17.5V10.5C23.625 10.0359 23.4406 9.59075 23.1124 9.26256C22.7842 8.93438 22.3391 8.75 21.875 8.75ZM18.375 14.875H17.5V15.75C17.5 15.9821 17.4078 16.2046 17.2437 16.3687C17.0796 16.5328 16.8571 16.625 16.625 16.625C16.3929 16.625 16.1704 16.5328 16.0063 16.3687C15.8422 16.2046 15.75 15.9821 15.75 15.75V14.875H14.875C14.6429 14.875 14.4204 14.7828 14.2563 14.6187C14.0922 14.4546 14 14.2321 14 14C14 13.7679 14.0922 13.5454 14.2563 13.3813C14.4204 13.2172 14.6429 13.125 14.875 13.125H15.75V12.25C15.75 12.0179 15.8422 11.7954 16.0063 11.6313C16.1704 11.4672 16.3929 11.375 16.625 11.375C16.8571 11.375 17.0796 11.4672 17.2437 11.6313C17.4078 11.7954 17.5 12.0179 17.5 12.25V13.125H18.375C18.6071 13.125 18.8296 13.2172 18.9937 13.3813C19.1578 13.5454 19.25 13.7679 19.25 14C19.25 14.2321 19.1578 14.4546 18.9937 14.6187C18.8296 14.7828 18.6071 14.875 18.375 14.875Z" fill="white"/>
<path d="M18.375 21C18.1429 21 17.9204 21.0922 17.7563 21.2563C17.5922 21.4204 17.5 21.6429 17.5 21.875V23.625C17.5 23.8571 17.4078 24.0796 17.2437 24.2437C17.0796 24.4078 16.8571 24.5 16.625 24.5H7C6.76794 24.5 6.54538 24.4078 6.38128 24.2437C6.21719 24.0796 6.125 23.8571 6.125 23.625V4.375C6.125 4.14294 6.21719 3.92038 6.38128 3.75628C6.54538 3.59219 6.76794 3.5 7 3.5H7.875C7.875 4.19619 8.15156 4.86387 8.64384 5.35616C9.13613 5.84844 9.80381 6.125 10.5 6.125H13.125C13.8212 6.125 14.4889 5.84844 14.9812 5.35616C15.4734 4.86387 15.75 4.19619 15.75 3.5H16.625C16.8571 3.5 17.0796 3.59219 17.2437 3.75628C17.4078 3.92038 17.5 4.14294 17.5 4.375V6.125C17.5 6.35706 17.5922 6.57962 17.7563 6.74372C17.9204 6.90781 18.1429 7 18.375 7C18.6071 7 18.8296 6.90781 18.9937 6.74372C19.1578 6.57962 19.25 6.35706 19.25 6.125V4.375C19.25 3.67881 18.9734 3.01113 18.4812 2.51884C17.9889 2.02656 17.3212 1.75 16.625 1.75H7C6.30381 1.75 5.63613 2.02656 5.14384 2.51884C4.65156 3.01113 4.375 3.67881 4.375 4.375V23.625C4.375 24.3212 4.65156 24.9889 5.14384 25.4812C5.63613 25.9734 6.30381 26.25 7 26.25H16.625C17.3212 26.25 17.9889 25.9734 18.4812 25.4812C18.9734 24.9889 19.25 24.3212 19.25 23.625V21.875C19.25 21.6429 19.1578 21.4204 18.9937 21.2563C18.8296 21.0922 18.6071 21 18.375 21Z" fill="white"/>
</svg>
