<svg width="28" height="28" viewBox="0 0 28 28" fill="none" xmlns="http://www.w3.org/2000/svg">
<g clip-path="url(#clip0_4978_348)">
<path d="M18.6631 17.4454H12.4714V14.1526C12.4714 12.903 13.4875 11.8864 14.736 11.8864H15.3376V12.4179C14.4451 12.5957 13.7703 13.3854 13.7703 14.3298V16.3757C13.7703 16.5873 13.942 16.7585 14.1536 16.7585H14.9362C15.1478 16.7585 15.319 16.5873 15.319 16.3757C15.319 16.1646 15.1478 15.9929 14.9362 15.9929H14.5364V14.3298C14.5364 13.6763 15.0674 13.1453 15.7204 13.1453C16.3728 13.1453 16.9033 13.6763 16.9033 14.3298V15.9929H16.5052C16.2935 15.9929 16.1224 16.1646 16.1224 16.3757C16.1224 16.5873 16.2935 16.7585 16.5052 16.7585H17.2861C17.4978 16.7585 17.6695 16.5873 17.6695 16.3757V14.3298C17.6695 13.3854 16.9957 12.5962 16.1038 12.4179V11.8864H17.3178L18.6631 13.0813V17.4454ZM22.1511 15.3897C22.1511 15.7769 22.4661 16.0924 22.8533 16.0924C23.2405 16.0924 23.5555 15.7769 23.5555 15.3897C23.5555 15.0025 23.2405 14.6875 22.8533 14.6875C22.4661 14.6875 22.1511 15.0025 22.1511 15.3897ZM14.4774 7.22811C14.4774 6.93389 14.5561 6.65662 14.6945 6.41764V3.9124C14.6945 1.96607 16.2777 0.382324 18.224 0.382324H19.8674C21.8126 0.382324 23.3958 1.96607 23.3958 3.9124V6.41545C23.5347 6.65498 23.614 6.93279 23.614 7.22811C23.614 8.10857 22.9091 8.82771 22.033 8.85014C21.7847 9.30459 21.4363 9.69724 21.0163 9.99639C20.7817 10.1643 20.5242 10.3032 20.2502 10.4065C19.8756 10.5493 19.4698 10.6275 19.046 10.6275C18.6216 10.6275 18.2158 10.5493 17.8412 10.4065C17.5672 10.3032 17.3102 10.1643 17.0756 9.99693C16.6556 9.69725 16.3067 9.30514 16.0584 8.85014C15.1823 8.82826 14.4774 8.10857 14.4774 7.22811ZM22.3562 8.00303C22.6471 7.86576 22.8484 7.5699 22.8484 7.22811C22.8484 7.05803 22.7986 6.89889 22.7122 6.7649C22.7013 6.75178 22.692 6.73756 22.6838 6.72334C22.6192 6.63475 22.5383 6.55873 22.4453 6.50076V7.22811C22.4453 7.49443 22.4147 7.7542 22.3562 8.00303ZM16.4122 7.22811C16.4122 7.60381 16.4915 7.96146 16.6337 8.28521C16.6397 8.29998 16.6468 8.31529 16.6539 8.32951C16.8667 8.78998 17.2085 9.17935 17.6328 9.44951L17.6339 9.45061C17.6498 9.461 17.6662 9.47084 17.682 9.48014L17.6853 9.48232C18.0829 9.7235 18.5483 9.86186 19.046 9.86186C19.5431 9.86186 20.0085 9.7235 20.406 9.48232L20.4093 9.48068C20.4241 9.4692 20.4394 9.4599 20.4553 9.4517C20.8796 9.18209 21.222 8.79436 21.4353 8.33498C21.444 8.31748 21.4517 8.29998 21.4593 8.28193C21.601 7.95928 21.6797 7.60271 21.6797 7.22811V5.98834V5.26865H20.9589C20.6073 5.26865 20.3218 4.98209 20.3218 4.6299V4.25857L19.5628 4.95147C19.332 5.16201 19.0563 5.26865 18.7435 5.26865H16.4122V7.22811ZM15.243 7.22811C15.243 7.5699 15.4448 7.86631 15.7352 8.00357C15.6767 7.75475 15.646 7.49498 15.646 7.22811V6.50076C15.5465 6.56311 15.4612 6.64514 15.395 6.74139C15.2993 6.88029 15.243 7.04818 15.243 7.22811ZM23.2361 11.8864V13.9733C23.8606 14.1412 24.3211 14.7126 24.3211 15.3897C24.3211 16.1996 23.6627 16.858 22.8533 16.858C22.0434 16.858 21.3849 16.1996 21.3849 15.3897C21.3849 14.7126 21.8454 14.1412 22.4699 13.9733V11.8864H20.7741L19.4288 13.0813V17.4454H25.6199V14.1526C25.6199 12.903 24.6044 11.8864 23.3553 11.8864H23.2361ZM20.2502 11.2154C19.8619 11.3329 19.4578 11.3931 19.046 11.3931C18.6347 11.3931 18.2306 11.3335 17.8412 11.2148V11.3269L19.046 12.3972L20.2502 11.3269V11.2154ZM23.0081 27.6178H24.8434V21.4775H23.0081V27.6178ZM11.0096 27.6178H22.2424V21.4775H11.0096V27.6178ZM3.1565 24.1643H10.244V21.4775H3.1565V24.1643ZM10.0575 8.57834H1.84018V14.7187H10.0575V8.57834ZM25.9847 18.211H2.01518C1.32666 18.211 0.766113 18.7715 0.766113 19.4606C0.766113 20.1508 1.32666 20.7119 2.01518 20.7119H25.9847C26.6732 20.7119 27.2338 20.1508 27.2338 19.4606C27.2338 18.7715 26.6732 18.211 25.9847 18.211ZM3.1565 27.6178H10.244V24.9299H3.1565V27.6178ZM7.26408 17.4454V15.4843H4.63361V17.4454H7.26408Z" fill="white"/>
</g>
<defs>
<clipPath id="clip0_4978_348">
<rect width="28" height="28" fill="white"/>
</clipPath>
</defs>
</svg>
