<svg width="32" height="32" viewBox="0 0 32 32" fill="none" xmlns="http://www.w3.org/2000/svg">
<path d="M24 7.79729C24 5.53886 22.9049 3.68989 21.1433 2.97179C19.4962 2.30056 17.616 2.74719 16 4.15212C14.3828 2.74719 12.5 2.30056 10.8567 2.97179C9.09507 3.68989 8 5.53886 8 7.79729C8 12.1365 12.0156 15.7563 15.7474 17.2843C15.9093 17.3502 16.0907 17.3502 16.2526 17.2843C19.9844 15.7563 24 12.1365 24 7.79729Z" fill="#064045"/>
<path d="M13.3431 21.6946C13.3411 21.6925 13.3382 21.6918 13.3361 21.6897C13.3341 21.6876 13.3331 21.684 13.3307 21.6817L10.0313 18.3809C9.78042 18.134 9.44218 17.9963 9.09025 17.9978C8.73833 17.9993 8.40125 18.1398 8.15248 18.3887C7.90371 18.6377 7.76342 18.9748 7.76218 19.3268C7.76094 19.6787 7.89886 20.0168 8.14587 20.2675L8.1378 20.264L10.0619 22.1881C10.1253 22.2496 10.1759 22.3232 10.2107 22.4045C10.2454 22.4858 10.2637 22.5731 10.2643 22.6615C10.265 22.7499 10.2481 22.8376 10.2146 22.9194C10.1811 23.0012 10.1316 23.0755 10.0691 23.138C10.0066 23.2005 9.93227 23.25 9.85047 23.2835C9.76867 23.317 9.68102 23.3339 9.59262 23.3333C9.50422 23.3326 9.41684 23.3143 9.33556 23.2796C9.25427 23.2448 9.18072 23.1942 9.11917 23.1308L5.3327 19.334V14.6673C5.3327 14.3137 5.19222 13.9746 4.94218 13.7245C4.69213 13.4745 4.35299 13.334 3.99937 13.334C3.64575 13.334 3.30661 13.4745 3.05656 13.7245C2.80651 13.9746 2.66603 14.3137 2.66603 14.6673V20.8895C2.6648 21.1789 2.72687 21.4651 2.84788 21.7281C2.96889 21.991 3.14592 22.2243 3.36657 22.4116L9.3327 28.2962V28.6673C9.33265 28.7549 9.34986 28.8416 9.38334 28.9225C9.41683 29.0034 9.46593 29.0769 9.52785 29.1388C9.58976 29.2008 9.66328 29.2499 9.74418 29.2833C9.82509 29.3168 9.9118 29.334 9.99937 29.334H13.9994C14.0869 29.334 14.1736 29.3168 14.2546 29.2833C14.3355 29.2499 14.409 29.2008 14.4709 29.1388C14.5328 29.0769 14.5819 29.0034 14.6154 28.9225C14.6489 28.8416 14.6661 28.7549 14.666 28.6673V23.8848C14.666 23.3616 14.4605 22.8594 14.0938 22.4863L13.3431 21.6946Z" fill="#064045"/>
<path d="M28.0007 13.334C27.6471 13.3343 27.3082 13.4749 27.0582 13.7249C26.8083 13.9749 26.6677 14.3138 26.6673 14.6673V19.334L22.8809 23.1308C22.7552 23.2527 22.5867 23.3203 22.4116 23.319C22.2366 23.3176 22.069 23.2475 21.9453 23.1237C21.8215 23 21.7514 22.8325 21.75 22.6574C21.7487 22.4824 21.8163 22.3138 21.9382 22.1881L23.8622 20.2641L23.8542 20.2676C23.9796 20.1441 24.0794 19.9971 24.1477 19.8349C24.2161 19.6727 24.2516 19.4986 24.2524 19.3226C24.2531 19.1466 24.219 18.9722 24.152 18.8094C24.085 18.6466 23.9865 18.4988 23.8621 18.3743C23.7377 18.2498 23.5898 18.1511 23.4271 18.084C23.2644 18.0169 23.09 17.9827 22.914 17.9833C22.738 17.9839 22.5639 18.0194 22.4017 18.0876C22.2394 18.1559 22.0923 18.2555 21.9688 18.3809L18.6693 21.6817C18.6669 21.6841 18.6663 21.6873 18.6639 21.6898C18.6615 21.6923 18.659 21.6926 18.6569 21.6947L17.9063 22.4864C17.5396 22.8595 17.3341 23.3617 17.334 23.8848V28.6673C17.3339 28.7549 17.3511 28.8416 17.3846 28.9225C17.4181 29.0034 17.4672 29.0769 17.5291 29.1388C17.591 29.2008 17.6646 29.2499 17.7455 29.2833C17.8264 29.3168 17.9131 29.334 18.0007 29.334H22.0007C22.0882 29.334 22.1749 29.3168 22.2558 29.2833C22.3367 29.2499 22.4103 29.2008 22.4722 29.1388C22.5341 29.0769 22.5832 29.0034 22.6167 28.9225C22.6502 28.8416 22.6674 28.7549 22.6673 28.6673V28.2962L28.6335 22.4116C28.8541 22.2243 29.0311 21.991 29.1521 21.7281C29.2732 21.4651 29.3352 21.1789 29.334 20.8895V14.6673C29.3336 14.3138 29.193 13.9749 28.9431 13.7249C28.6931 13.4749 28.3542 13.3343 28.0007 13.334Z" fill="#064045"/>
</svg>
