<svg width="28" height="28" viewBox="0 0 28 28" fill="none" xmlns="http://www.w3.org/2000/svg">
<g clip-path="url(#clip0_4978_339)">
<path fill-rule="evenodd" clip-rule="evenodd" d="M9.96882 24.3332C11.7953 25.7061 14.0658 26.52 16.5267 26.52C18.134 26.52 19.6604 26.1729 21.0347 25.5496L26.5132 26.3779C26.712 26.408 26.8976 26.335 27.0228 26.1777C27.148 26.0203 27.1774 25.8231 27.1034 25.636L25.5618 21.7392C26.7551 19.9881 27.4531 17.8725 27.4531 15.5936C27.4531 11.3851 25.0734 7.73314 21.5865 5.908C22.7931 7.78181 23.4934 10.0124 23.4934 12.4066C23.4934 19.0448 18.1114 24.4267 11.4733 24.4267C10.9687 24.4268 10.4664 24.3954 9.96882 24.3332ZM11.4733 1.48022C17.5078 1.48022 22.3997 6.37213 22.3997 12.4066C22.3997 18.4411 17.5078 23.333 11.4733 23.333C9.86595 23.333 8.33962 22.9859 6.96533 22.3625L1.48684 23.1909C1.288 23.221 1.10239 23.148 0.977156 22.9907C0.851922 22.8333 0.822609 22.636 0.896602 22.449L2.43819 18.5521C1.24485 16.8011 0.546875 14.6855 0.546875 12.4066C0.546875 6.37213 5.43878 1.48022 11.4733 1.48022ZM13.1109 7.62147C13.2615 7.62147 13.3843 7.74429 13.3843 7.8949V10.4956H15.985C16.1357 10.4956 16.2585 10.6185 16.2585 10.7691V14.0443C16.2585 14.1949 16.1357 14.3177 15.985 14.3177H13.3843V16.9185C13.3843 17.0691 13.2615 17.1919 13.1109 17.1919H9.83566C9.68505 17.1919 9.56222 17.0691 9.56222 16.9185V14.3177H6.9615C6.81089 14.3177 6.68806 14.1949 6.68806 14.0443V10.7691C6.68806 10.6185 6.81089 10.4956 6.9615 10.4956H9.56222V7.8949C9.56222 7.74429 9.68505 7.62147 9.83566 7.62147H13.1109Z" fill="white"/>
</g>
<defs>
<clipPath id="clip0_4978_339">
<rect width="28" height="28" fill="white"/>
</clipPath>
</defs>
</svg>
