<svg width="32" height="32" viewBox="0 0 32 32" fill="none" xmlns="http://www.w3.org/2000/svg">
<g clip-path="url(#clip0_4962_343)">
<path d="M31.5079 29.2551L29.4296 27.1769C30.0691 26.2177 30.3888 25.0986 30.3888 23.9796C30.3888 20.4625 27.5112 17.585 23.9942 17.585C20.4772 17.585 17.5996 20.4625 17.5996 23.9796C17.5996 27.4966 20.4772 30.3742 23.9942 30.3742C25.1133 30.3742 26.2323 30.0544 27.1915 29.415L29.2698 31.4932C29.5895 31.813 30.5487 32.4524 31.5079 31.4932C32.1473 30.8538 32.1473 29.8946 31.5079 29.2551ZM23.9942 27.1769C22.2357 27.1769 20.7969 25.7381 20.7969 23.9796C20.7969 22.221 22.2357 20.7823 23.9942 20.7823C25.7527 20.7823 27.1915 22.221 27.1915 23.9796C27.1915 25.7381 25.7527 27.1769 23.9942 27.1769Z" fill="#064045"/>
<path d="M23.9932 0H1.61208C0.652888 0 0.0134277 0.63946 0.0134277 1.59865V30.3744C0.0134277 31.3336 0.652888 31.973 1.61208 31.973H18.7176C16.1598 30.2145 14.4013 27.3369 14.4013 23.9798C14.4013 18.7042 18.7176 14.3879 23.9932 14.3879C24.4728 14.3879 25.1123 14.3879 25.5918 14.5477V1.59865C25.5918 0.63946 24.9524 0 23.9932 0ZM12.8026 12.7892H4.80938C3.85019 12.7892 3.21073 11.9899 3.21073 11.1906C3.21073 10.2314 3.85019 9.59191 4.80938 9.59191H12.8026C13.7618 9.59191 14.4013 10.2314 14.4013 11.1906C14.4013 11.9899 13.7618 12.7892 12.8026 12.7892ZM20.7959 6.3946H4.80938C3.85019 6.3946 3.21073 5.59528 3.21073 4.79595C3.21073 3.83676 3.85019 3.1973 4.80938 3.1973H20.7959C21.7551 3.1973 22.3945 3.83676 22.3945 4.79595C22.3945 5.59528 21.7551 6.3946 20.7959 6.3946Z" fill="#064045"/>
</g>
<defs>
<clipPath id="clip0_4962_343">
<rect width="32" height="32" fill="white"/>
</clipPath>
</defs>
</svg>
