<svg width="32" height="32" viewBox="0 0 32 32" fill="none" xmlns="http://www.w3.org/2000/svg">
<g clip-path="url(#clip0_4962_353)">
<path d="M12.8301 15.9922H19.2336V20.7949H12.8301V15.9922Z" fill="#064045"/>
<path d="M17.6335 12.7903C17.6335 11.9063 16.9168 11.1895 16.0325 11.1895C15.1484 11.1895 14.4316 11.906 14.4316 12.7903V14.3911H17.6333V12.7903H17.6335Z" fill="#064045"/>
<path d="M29.6402 4.78517C24.9837 4.78517 18.857 3.21413 16.6731 0.302746C16.3826 -0.0510145 15.8604 -0.10204 15.5069 0.188244C15.4651 0.222667 15.4268 0.260998 15.3924 0.302746C13.2085 3.21364 7.08155 4.78517 2.42529 4.78517C1.9834 4.78517 1.625 5.14357 1.625 5.58571V15.9912C1.625 24.793 9.26832 30.0989 15.8132 31.9688C15.9566 32.0105 16.1089 32.0105 16.2525 31.9688C22.7974 30.0989 30.4407 24.793 30.4407 15.9912V5.58571C30.4407 5.14357 30.0823 4.78517 29.6402 4.78517ZM20.8355 21.5943C20.8355 22.0364 20.4771 22.3948 20.0352 22.3948H12.0305C11.5886 22.3948 11.2302 22.0364 11.2302 21.5943V15.1909C11.2302 14.7488 11.5886 14.3904 12.0305 14.3904H12.8311V12.7896C12.8311 11.0213 14.2644 9.58791 16.0327 9.58791C17.801 9.58791 19.2346 11.0213 19.2346 12.7896V14.3904H20.0349C20.4771 14.3904 20.8352 14.7488 20.8352 15.1909V21.5943H20.8355Z" fill="#064045"/>
</g>
<defs>
<clipPath id="clip0_4962_353">
<rect width="32" height="32" fill="white"/>
</clipPath>
</defs>
</svg>
