<svg width="20" height="20" viewBox="0 0 20 20" fill="none" xmlns="http://www.w3.org/2000/svg">
<g clip-path="url(#clip0_4970_347)">
<path fill-rule="evenodd" clip-rule="evenodd" d="M10.0361 4.86328C12.8727 4.86328 15.1738 7.16444 15.1738 10.001C15.1738 12.8375 12.8727 15.1387 10.0361 15.1387C7.19975 15.1387 4.89844 12.8375 4.89844 10.001C4.89845 7.16445 7.19975 4.8633 10.0361 4.86328ZM10.0361 6.66797C8.19604 6.66798 6.70314 8.16073 6.70312 10.001C6.70312 11.8412 8.19603 13.334 10.0361 13.334C11.8764 13.334 13.3691 11.8412 13.3691 10.001C13.3691 8.16072 11.8764 6.66797 10.0361 6.66797Z" fill="white"/>
<path d="M15.377 3.46094C16.0394 3.46094 16.577 3.99774 16.5771 4.66016C16.5771 5.32252 16.0395 5.85938 15.377 5.85938C14.7147 5.85926 14.1777 5.32245 14.1777 4.66016C14.1778 3.9978 14.7148 3.46105 15.377 3.46094Z" fill="white"/>
<path fill-rule="evenodd" clip-rule="evenodd" d="M10.0371 0C12.7525 0 13.0925 0.0116783 14.1631 0.0625C15.2256 0.109354 15.9522 0.281236 16.5889 0.527344C17.2531 0.777331 17.8592 1.17178 18.3594 1.67969C18.8713 2.17982 19.2617 2.78213 19.5156 3.4541C19.7617 4.08705 19.9336 4.81748 19.9805 5.87988C20.0273 6.94653 20.0312 7.28658 20.0312 10.002C20.0312 12.7173 20.0195 13.0574 19.9727 14.124C19.9258 15.1864 19.7538 15.913 19.5078 16.5498C18.9881 17.8938 17.9252 18.9569 16.5811 19.4766C15.9482 19.7227 15.2177 19.8946 14.1553 19.9414C13.0886 19.9884 12.7486 20 10.0332 20C7.31791 20 6.97761 19.9884 5.91113 19.9414C4.8486 19.8945 4.12211 19.7227 3.48535 19.4766C2.82116 19.2266 2.21497 18.8321 1.71484 18.3242C1.20693 17.8241 0.812549 17.2218 0.558594 16.5498C0.312514 15.9169 0.140605 15.1864 0.09375 14.124C0.0468964 13.0574 0.0351562 12.7173 0.0351562 10.002C0.0351562 7.28658 0.0468346 6.94659 0.0976562 5.87598C0.14451 4.81351 0.316392 4.08698 0.5625 3.4502C0.81264 2.786 1.20693 2.17982 1.71484 1.67969C2.21497 1.16781 2.81713 0.777393 3.48926 0.523438C4.12208 0.277472 4.85256 0.105453 5.91504 0.0585938C6.98168 0.0117401 7.32174 2.75154e-09 10.0371 0ZM10.0449 1.81641C7.37655 1.81641 7.05978 1.82815 6.00488 1.875C5.03249 1.91804 4.50102 2.08204 4.14941 2.21875C3.71567 2.37885 3.32514 2.63372 3.00098 2.96582C2.66495 3.28631 2.41024 3.68055 2.25 4.11426C2.11328 4.46587 1.94914 4.99334 1.90625 5.96973C1.85924 7.02065 1.84766 7.34125 1.84766 10.0098C1.84766 12.6783 1.85924 12.9949 1.90625 14.0498C1.94913 15.0222 2.11329 15.5537 2.25 15.9053C2.41025 16.3389 2.66498 16.7294 2.99707 17.0537C3.31741 17.3858 3.71192 17.6405 4.14551 17.8008C4.49712 17.9375 5.02459 18.1016 6.00098 18.1445C7.05205 18.1915 7.37255 18.2031 10.041 18.2031C12.7095 18.2031 13.0262 18.1915 14.0811 18.1445C15.0536 18.1016 15.5849 17.9375 15.9365 17.8008C16.8078 17.4647 17.4999 16.7727 17.8359 15.9014C17.9727 15.5498 18.1366 15.0223 18.1797 14.0459C18.2265 12.991 18.2383 12.6783 18.2383 10.0098C18.2383 7.34125 18.2265 7.02462 18.1797 5.96973C18.1366 4.99715 17.9727 4.46587 17.8359 4.11426C17.6757 3.68053 17.421 3.29013 17.0889 2.96582C16.7685 2.63372 16.374 2.37885 15.9404 2.21875C15.5888 2.08204 15.0613 1.91803 14.085 1.875C13.0339 1.82815 12.7174 1.81641 10.0449 1.81641Z" fill="white"/>
</g>
<defs>
<clipPath id="clip0_4970_347">
<rect width="20" height="20" fill="white"/>
</clipPath>
</defs>
</svg>
