<svg width="28" height="28" viewBox="0 0 28 28" fill="none" xmlns="http://www.w3.org/2000/svg">
<rect x="0.5" y="0.5" width="27" height="27" rx="13.5" fill="#064045"/>
<rect x="0.5" y="0.5" width="27" height="27" rx="13.5" stroke="white"/>
<path d="M9.83333 19C9.58333 19 9.41667 18.9167 9.25 18.75C8.91667 18.4167 8.91667 17.9167 9.25 17.5833L17.5833 9.25C17.9167 8.91667 18.4167 8.91667 18.75 9.25C19.0833 9.58333 19.0833 10.0833 18.75 10.4167L10.4167 18.75C10.25 18.9167 10.0833 19 9.83333 19Z" fill="white"/>
<path d="M18.1673 18.1667C17.6673 18.1667 17.334 17.8333 17.334 17.3333V10.6667H10.6673C10.1673 10.6667 9.83398 10.3333 9.83398 9.83333C9.83398 9.33333 10.1673 9 10.6673 9H18.1673C18.6673 9 19.0007 9.33333 19.0007 9.83333V17.3333C19.0007 17.8333 18.6673 18.1667 18.1673 18.1667Z" fill="white"/>
</svg>
