<svg width="20" height="20" viewBox="0 0 20 20" fill="none" xmlns="http://www.w3.org/2000/svg">
<path d="M5.02637 19.001H1.29102V6.98633H5.02637V19.001ZM14.5225 6.69141C18.302 6.69159 18.999 9.16646 18.999 12.4062V18.9766H15.2646V13.126C15.2646 11.7311 15.2414 9.9541 13.3291 9.9541C11.3946 9.95434 11.1026 11.4613 11.1025 13.0361V18.999H7.36719V6.98438H10.9443V8.62598H10.9893C11.4843 7.68104 12.7001 6.69141 14.5225 6.69141ZM3.16016 1C4.35254 1.00011 5.32031 1.96775 5.32031 3.16016C5.3202 4.35248 4.35247 5.34266 3.16016 5.34277C1.96775 5.34277 1.00011 4.35254 1 3.16016C1 1.96768 1.96768 1 3.16016 1Z" fill="white"/>
</svg>
