<svg width="158" height="33" viewBox="0 0 158 33" fill="none" xmlns="http://www.w3.org/2000/svg">
<path d="M15.0354 11.3025H9.94104L9.94104 16.3614H5.05896C5.05896 13.5666 2.79481 11.3025 4.26804e-07 11.3025L0 6.4204L5.05896 6.42039L5.05896 1.36144L9.94104 1.36143C9.94104 4.15624 12.2406 6.42039 15.0354 6.42039V11.3025Z" fill="#064045"/>
<path d="M9.94104 11.3025H15.0354V6.42039C12.2406 6.42039 9.94104 4.15624 9.94104 1.36143L5.05896 1.36144L5.05896 6.42039L9.94104 11.3025Z" fill="#064045"/>
<path d="M9.94104 16.3614L9.94104 11.3025L5.05896 6.42039L0 6.4204L4.26804e-07 11.3025C2.79481 11.3025 5.05896 13.5666 5.05896 16.3614H9.94104Z" fill="#064045"/>
<path d="M30.0708 11.3025H24.9764V16.3614H20.0943C20.0943 13.5666 17.8302 11.3025 15.0354 11.3025V6.42039L20.0943 6.42039L20.0943 1.36144L24.9764 1.36143C24.9764 4.15624 27.2759 6.42039 30.0708 6.42039V11.3025Z" fill="#064045"/>
<path d="M24.9764 11.3025H30.0708V6.42039C27.2759 6.42039 24.9764 4.15624 24.9764 1.36143L20.0943 1.36144L20.0943 6.42039L24.9764 11.3025Z" fill="#064045"/>
<path d="M24.9764 16.3614V11.3025L20.0943 6.42039L15.0354 6.42039V11.3025C17.8302 11.3025 20.0943 13.5666 20.0943 16.3614H24.9764Z" fill="#064045"/>
<path d="M15.0354 26.3025H9.94104L9.94104 31.3614L5.05896 31.3614C5.05896 28.5666 2.79481 26.3025 4.26804e-07 26.3025L0 21.4204H5.05896L5.05896 16.3614H9.94104C9.94104 19.1562 12.2406 21.4204 15.0354 21.4204V26.3025Z" fill="#064045"/>
<path d="M9.94104 26.3025H15.0354V21.4204C12.2406 21.4204 9.94104 19.1562 9.94104 16.3614H5.05896L5.05896 21.4204L9.94104 26.3025Z" fill="#064045"/>
<path d="M9.94104 31.3614L9.94104 26.3025L5.05896 21.4204H0L4.26804e-07 26.3025C2.79481 26.3025 5.05896 28.5666 5.05896 31.3614L9.94104 31.3614Z" fill="#064045"/>
<path d="M30.0708 26.3025H24.9764V31.3614L20.0943 31.3614C20.0943 28.5666 17.8302 26.3025 15.0354 26.3025V21.4204H20.0943V16.3614H24.9764C24.9764 19.1562 27.2759 21.4204 30.0708 21.4204V26.3025Z" fill="#064045"/>
<path d="M24.9764 26.3025H30.0708V21.4204C27.2759 21.4204 24.9764 19.1562 24.9764 16.3614H20.0943V21.4204L24.9764 26.3025Z" fill="#064045"/>
<path d="M24.9764 31.3614V26.3025L20.0943 21.4204H15.0354V26.3025C17.8302 26.3025 20.0943 28.5666 20.0943 31.3614L24.9764 31.3614Z" fill="#064045"/>
<path d="M8.06604 10.135H22.0755V22.1633H8.06604V10.135Z" fill="#064045"/>
<path d="M50.3836 32.7229C47.0903 32.7229 44.4531 32.1038 42.4722 30.8657C40.4912 29.6029 39.5007 27.6838 39.5007 25.1086C39.5007 23.7467 39.736 22.7067 40.2064 21.9886C40.6769 21.2705 41.3703 20.9114 42.2864 20.9114C42.955 20.9114 43.4998 21.0848 43.9207 21.4314C44.3417 21.7781 44.5522 22.2238 44.5522 22.7686C44.5522 23.2638 44.515 23.6971 44.4407 24.0686C44.4407 24.1676 44.416 24.341 44.3664 24.5886C44.3417 24.8362 44.3293 25.0962 44.3293 25.3686C44.3293 26.4829 44.8864 27.3124 46.0007 27.8571C47.1398 28.4019 48.7245 28.6743 50.755 28.6743C52.8598 28.6743 54.5064 28.3029 55.695 27.56C56.8836 26.7924 57.4779 25.7276 57.4779 24.3657C57.4779 23.5238 57.2055 22.8057 56.6607 22.2114C56.116 21.5924 55.435 21.0848 54.6179 20.6886C53.8007 20.2676 52.6493 19.76 51.1636 19.1657C49.2569 18.4229 47.6969 17.7171 46.4836 17.0486C45.295 16.38 44.2674 15.4762 43.4007 14.3371C42.5588 13.1733 42.1379 11.7371 42.1379 10.0286C42.1379 8.24571 42.6084 6.66095 43.5493 5.27429C44.515 3.88762 45.8893 2.81048 47.6722 2.04286C49.4798 1.27524 51.5969 0.891428 54.0236 0.891428C55.8312 0.891428 57.4903 1.16381 59.0007 1.70857C60.5112 2.22857 61.7122 3.03333 62.6036 4.12286C63.5198 5.21238 63.9779 6.54952 63.9779 8.13428C63.9779 9.69429 63.7426 10.8705 63.2722 11.6629C62.8017 12.4552 62.1084 12.8514 61.1922 12.8514C60.5484 12.8514 60.0036 12.6533 59.5579 12.2571C59.1369 11.861 58.9264 11.3905 58.9264 10.8457C58.9264 10.3752 58.9636 9.9419 59.0379 9.54571C59.1122 8.80286 59.1493 8.33238 59.1493 8.13428C59.1493 7.09429 58.6417 6.3019 57.6264 5.75714C56.6112 5.21238 55.3484 4.94 53.8379 4.94C51.7084 4.94 50.0741 5.33619 48.935 6.12857C47.8207 6.89619 47.2636 7.98571 47.2636 9.39714C47.2636 10.3381 47.5484 11.1429 48.1179 11.8114C48.7122 12.48 49.4426 13.0371 50.3093 13.4829C51.176 13.9286 52.3893 14.461 53.9493 15.08C55.8312 15.8476 57.3417 16.541 58.4807 17.16C59.6198 17.779 60.5855 18.621 61.3779 19.6857C62.195 20.7505 62.6036 22.0629 62.6036 23.6229C62.6036 26.5448 61.4893 28.7981 59.2607 30.3829C57.0569 31.9429 54.0979 32.7229 50.3836 32.7229Z" fill="#064045"/>
<path d="M69.5998 32.6114C68.0646 32.6114 66.8388 32.0543 65.9227 30.94C65.0065 29.8257 64.5484 28.3648 64.5484 26.5571C64.5484 24.5762 65.0065 22.7067 65.9227 20.9486C66.8388 19.1657 68.0522 17.7419 69.5627 16.6771C71.0979 15.5876 72.7198 15.0429 74.4284 15.0429C74.9731 15.0429 75.3322 15.1543 75.5055 15.3771C75.7036 15.5752 75.8646 15.9467 75.9884 16.4914C76.5084 16.3924 77.0531 16.3429 77.6227 16.3429C78.836 16.3429 79.4427 16.7762 79.4427 17.6429C79.4427 18.1629 79.2569 19.401 78.8855 21.3571C78.316 24.2048 78.0312 26.1857 78.0312 27.3C78.0312 27.6714 78.1179 27.9686 78.2912 28.1914C78.4893 28.4143 78.7369 28.5257 79.0341 28.5257C79.5046 28.5257 80.0741 28.2286 80.7427 27.6343C81.4112 27.0152 82.315 26.0248 83.4541 24.6629C83.7512 24.3162 84.0855 24.1429 84.4569 24.1429C84.7788 24.1429 85.0265 24.2914 85.1998 24.5886C85.3979 24.8857 85.4969 25.2943 85.4969 25.8143C85.4969 26.8048 85.2617 27.5724 84.7912 28.1171C83.776 29.38 82.6988 30.4448 81.5598 31.3114C80.4207 32.1781 79.3188 32.6114 78.2541 32.6114C77.4369 32.6114 76.6817 32.339 75.9884 31.7943C75.3198 31.2248 74.8122 30.4571 74.4655 29.4914C73.1779 31.5714 71.556 32.6114 69.5998 32.6114ZM70.9369 28.86C71.4817 28.86 72.0017 28.5381 72.4969 27.8943C72.9922 27.2505 73.3512 26.3962 73.5741 25.3314L74.9484 18.4971C73.9084 18.5219 72.9427 18.9181 72.0512 19.6857C71.1846 20.4286 70.4912 21.419 69.9712 22.6571C69.4512 23.8952 69.1912 25.2076 69.1912 26.5943C69.1912 27.3619 69.3398 27.9314 69.6369 28.3029C69.9588 28.6743 70.3922 28.86 70.9369 28.86Z" fill="#064045"/>
<path d="M84.3725 32.6114C83.4315 32.6114 82.763 32.1162 82.3668 31.1257C81.9954 30.1352 81.8096 28.5505 81.8096 26.3714C81.8096 23.1524 82.2677 20.0943 83.1839 17.1971C83.4068 16.479 83.7658 15.959 84.2611 15.6371C84.7811 15.2905 85.4992 15.1171 86.4154 15.1171C86.9106 15.1171 87.2573 15.179 87.4554 15.3029C87.6534 15.4267 87.7525 15.6619 87.7525 16.0086C87.7525 16.4048 87.5668 17.2962 87.1954 18.6829C86.9477 19.6733 86.7496 20.54 86.6011 21.2829C86.4525 22.0257 86.3287 22.9419 86.2296 24.0314C87.0468 21.9019 87.963 20.1686 88.9782 18.8314C89.9934 17.4943 90.9839 16.541 91.9496 15.9714C92.9401 15.4019 93.8439 15.1171 94.6611 15.1171C96.2706 15.1171 97.0754 15.9219 97.0754 17.5314C97.0754 18.4971 96.803 20.2429 96.2582 22.7686C95.7877 24.9229 95.5525 26.3467 95.5525 27.04C95.5525 28.0305 95.9115 28.5257 96.6296 28.5257C97.1249 28.5257 97.7068 28.2286 98.3754 27.6343C99.0687 27.0152 99.9849 26.0248 101.124 24.6629C101.421 24.3162 101.755 24.1429 102.127 24.1429C102.449 24.1429 102.696 24.2914 102.87 24.5886C103.068 24.8857 103.167 25.2943 103.167 25.8143C103.167 26.8048 102.932 27.5724 102.461 28.1171C101.396 29.4295 100.245 30.5067 99.0068 31.3486C97.7934 32.1905 96.4068 32.6114 94.8468 32.6114C93.5839 32.6114 92.6306 32.2524 91.9868 31.5343C91.343 30.7914 91.0211 29.7267 91.0211 28.34C91.0211 27.6467 91.1944 26.4086 91.5411 24.6257C91.863 23.0657 92.0239 21.9886 92.0239 21.3943C92.0239 20.9981 91.8877 20.8 91.6154 20.8C91.2934 20.8 90.8354 21.221 90.2411 22.0629C89.6715 22.88 89.0773 23.9695 88.4582 25.3314C87.8639 26.6933 87.3811 28.1295 87.0096 29.64C86.7373 30.8038 86.4154 31.5962 86.0439 32.0171C85.6973 32.4133 85.1401 32.6114 84.3725 32.6114Z" fill="#064045"/>
<path d="M115.985 24.1429C116.306 24.1429 116.554 24.2914 116.727 24.5886C116.925 24.8857 117.025 25.2943 117.025 25.8143C117.025 26.8048 116.789 27.5724 116.319 28.1171C115.254 29.4295 114.09 30.5067 112.827 31.3486C111.565 32.1905 110.116 32.6114 108.482 32.6114C103.43 32.6114 100.905 29.0581 100.905 21.9514C100.905 20.8619 100.942 19.76 101.016 18.6457H99.5674C98.8245 18.6457 98.3169 18.5095 98.0445 18.2371C97.7969 17.9648 97.6731 17.5314 97.6731 16.9371C97.6731 15.5505 98.2303 14.8571 99.3445 14.8571H101.462C101.883 12.1333 102.526 9.64476 103.393 7.39143C104.26 5.13809 105.3 3.34286 106.513 2.00571C107.751 0.668571 109.076 0 110.487 0C111.527 0 112.345 0.458095 112.939 1.37429C113.533 2.29048 113.83 3.4419 113.83 4.82857C113.83 8.66667 112.221 12.0095 109.002 14.8571H113.162C113.558 14.8571 113.843 14.9438 114.016 15.1171C114.189 15.2905 114.276 15.6124 114.276 16.0829C114.276 17.7914 112.877 18.6457 110.079 18.6457H105.547C105.498 19.8838 105.473 20.8495 105.473 21.5429C105.473 24.1181 105.77 25.9257 106.365 26.9657C106.984 28.0057 107.949 28.5257 109.262 28.5257C110.326 28.5257 111.267 28.2038 112.085 27.56C112.902 26.9162 113.867 25.9505 114.982 24.6629C115.279 24.3162 115.613 24.1429 115.985 24.1429ZM109.485 3.56571C109.113 3.56571 108.692 4.03619 108.222 4.97714C107.776 5.89333 107.343 7.18095 106.922 8.84C106.526 10.4743 106.191 12.2943 105.919 14.3C107.38 13.0371 108.469 11.6257 109.187 10.0657C109.93 8.48095 110.302 7.04476 110.302 5.75714C110.302 4.29619 110.029 3.56571 109.485 3.56571Z" fill="#064045"/>
<path d="M129.823 24.1429C130.145 24.1429 130.393 24.2914 130.566 24.5886C130.764 24.8857 130.863 25.2943 130.863 25.8143C130.863 26.8048 130.628 27.5724 130.157 28.1171C129.241 29.2314 127.941 30.259 126.257 31.2C124.598 32.141 122.816 32.6114 120.909 32.6114C118.309 32.6114 116.291 31.9057 114.855 30.4943C113.418 29.0829 112.7 27.1514 112.7 24.7C112.7 22.9914 113.059 21.4067 113.777 19.9457C114.496 18.46 115.486 17.2838 116.749 16.4171C118.036 15.5505 119.485 15.1171 121.095 15.1171C122.531 15.1171 123.682 15.5505 124.549 16.4171C125.416 17.259 125.849 18.4105 125.849 19.8714C125.849 21.58 125.23 23.0533 123.992 24.2914C122.778 25.5048 120.711 26.4705 117.789 27.1886C118.408 28.3276 119.584 28.8971 121.317 28.8971C122.432 28.8971 123.695 28.5133 125.106 27.7457C126.542 26.9533 127.78 25.9257 128.82 24.6629C129.117 24.3162 129.452 24.1429 129.823 24.1429ZM120.463 18.7571C119.547 18.7571 118.767 19.2895 118.123 20.3543C117.504 21.419 117.195 22.7067 117.195 24.2171V24.2914C118.656 23.9448 119.807 23.4248 120.649 22.7314C121.491 22.0381 121.912 21.2333 121.912 20.3171C121.912 19.8467 121.776 19.4752 121.503 19.2029C121.256 18.9057 120.909 18.7571 120.463 18.7571Z" fill="#064045"/>
<path d="M129.733 32.6114C128.792 32.6114 128.124 32.1162 127.727 31.1257C127.356 30.1352 127.17 28.5505 127.17 26.3714C127.17 23.1524 127.628 20.0943 128.545 17.1971C128.767 16.479 129.127 15.959 129.622 15.6371C130.142 15.2905 130.86 15.1171 131.776 15.1171C132.271 15.1171 132.618 15.179 132.816 15.3029C133.014 15.4267 133.113 15.6619 133.113 16.0086C133.113 16.4048 132.927 17.2962 132.556 18.6829C132.308 19.6733 132.11 20.54 131.962 21.2829C131.813 22.0257 131.689 22.9419 131.59 24.0314C132.407 21.9019 133.324 20.1686 134.339 18.8314C135.354 17.4943 136.345 16.541 137.31 15.9714C138.301 15.4019 139.205 15.1171 140.022 15.1171C141.631 15.1171 142.436 15.9219 142.436 17.5314C142.436 17.8533 142.325 18.6333 142.102 19.8714C141.904 20.8619 141.805 21.481 141.805 21.7286C141.805 22.5952 142.114 23.0286 142.733 23.0286C143.427 23.0286 144.318 22.4838 145.407 21.3943C145.729 21.0724 146.064 20.9114 146.41 20.9114C146.732 20.9114 146.98 21.06 147.153 21.3571C147.351 21.6295 147.45 22.001 147.45 22.4714C147.45 23.3876 147.203 24.1057 146.707 24.6257C146.014 25.3438 145.197 25.9629 144.256 26.4829C143.34 26.9781 142.362 27.2257 141.322 27.2257C140.009 27.2257 139.007 26.8914 138.313 26.2229C137.645 25.5543 137.31 24.6505 137.31 23.5114C137.31 23.14 137.347 22.7686 137.422 22.3971C137.471 21.9019 137.496 21.5676 137.496 21.3943C137.496 20.9981 137.36 20.8 137.087 20.8C136.716 20.8 136.221 21.221 135.602 22.0629C135.007 22.88 134.413 23.9695 133.819 25.3314C133.225 26.6933 132.742 28.1295 132.37 29.64C132.098 30.8038 131.776 31.5962 131.405 32.0171C131.058 32.4133 130.501 32.6114 129.733 32.6114Z" fill="#064045"/>
<path d="M147.528 32.6114C146.116 32.6114 144.965 32.0543 144.073 30.94C143.207 29.8257 142.773 28.3648 142.773 26.5571C142.773 24.5762 143.231 22.7067 144.148 20.9486C145.064 19.1657 146.277 17.7419 147.788 16.6771C149.323 15.5876 150.945 15.0429 152.653 15.0429C153.198 15.0429 153.557 15.1543 153.73 15.3771C153.928 15.5752 154.089 15.9467 154.213 16.4914C154.684 16.3924 155.204 16.3429 155.773 16.3429C156.368 16.3429 156.826 16.4914 157.148 16.7886C157.469 17.0857 157.63 17.5067 157.63 18.0514C157.63 18.621 157.507 19.6114 157.259 21.0229C156.987 22.5333 156.776 23.9819 156.628 25.3686C156.479 26.7305 156.405 28.2657 156.405 29.9743C156.405 30.9152 156.207 31.5962 155.81 32.0171C155.439 32.4133 154.82 32.6114 153.953 32.6114C153.111 32.6114 152.48 32.4133 152.059 32.0171C151.663 31.5962 151.465 30.9276 151.465 30.0114L151.502 29.4171C150.734 31.5467 149.409 32.6114 147.528 32.6114ZM148.976 28.86C149.669 28.86 150.301 28.3771 150.87 27.4114C151.44 26.4457 151.948 24.7248 152.393 22.2486L153.099 18.4971C152.084 18.5219 151.143 18.9181 150.276 19.6857C149.409 20.4286 148.716 21.419 148.196 22.6571C147.676 23.8952 147.416 25.2076 147.416 26.5943C147.416 27.3371 147.552 27.9067 147.825 28.3029C148.122 28.6743 148.506 28.86 148.976 28.86Z" fill="#064045"/>
</svg>
