<svg width="17" height="16" viewBox="0 0 17 16" fill="none" xmlns="http://www.w3.org/2000/svg">
<path d="M5.30176 0C5.30176 1.49046 6.52813 2.69807 8.01855 2.69824H10.7168V0H13.3203C13.3203 1.49057 14.5475 2.69824 16.0381 2.69824V5.30176H13.3203V8C13.3203 9.49056 14.5475 10.6982 16.0381 10.6982V13.3018H13.3203V16H10.7168C10.7168 14.5094 9.50912 13.3018 8.01855 13.3018H5.30176V16H2.69824L2.68457 15.7236C2.54627 14.363 1.39727 13.3018 0 13.3018V10.6982H2.69824V8L2.68457 7.72363C2.54627 6.36296 1.39727 5.30176 0 5.30176V2.69824H2.69824V0H5.30176Z" fill="white"/>
</svg>
